<svg width="512" height="512" viewBox="0 0 512 512" fill="none" xmlns="http://www.w3.org/2000/svg">
<path d="M291.382 239.977C291.382 237.612 291.382 236.429 290.926 235.524C290.516 234.712 289.857 234.052 289.046 233.642C288.142 233.185 286.96 233.185 284.597 233.185H260.313C257.931 233.185 256.74 233.185 255.83 233.649C255.029 234.058 254.379 234.709 253.971 235.51C253.507 236.421 253.507 237.613 253.507 239.997V279.895C253.507 282.279 253.507 283.472 253.971 284.382C254.379 285.183 255.029 285.835 255.83 286.243C256.74 286.707 257.931 286.707 260.313 286.707H284.597C286.96 286.707 288.142 286.707 289.046 286.25C289.857 285.84 290.516 285.18 290.926 284.368C291.382 283.463 291.382 282.281 291.382 279.915C291.382 277.55 291.382 276.367 291.839 275.463C292.248 274.65 292.907 273.991 293.719 273.581C294.623 273.124 295.804 273.124 298.167 273.124H298.755C301.137 273.124 302.328 273.124 303.238 273.588C304.038 273.996 304.689 274.647 305.096 275.448C305.56 276.359 305.56 277.551 305.56 279.936V280.625C305.56 282.895 305.56 284.029 305.139 284.905C304.721 285.774 304.02 286.475 303.152 286.893C302.278 287.315 301.144 287.315 298.876 287.315H298.471C296.584 287.315 295.641 287.315 294.892 287.609C293.79 288.042 292.919 288.914 292.486 290.017C292.192 290.767 292.192 291.711 292.192 293.6C292.192 295.488 292.192 296.433 291.898 297.182C291.466 298.285 290.594 299.157 289.493 299.59C288.744 299.884 287.8 299.884 285.914 299.884H259.28C257.108 299.884 256.021 299.884 255.177 299.497C254.252 299.072 253.509 298.329 253.085 297.402C252.697 296.557 252.697 295.47 252.697 293.296C252.697 291.121 252.697 290.034 252.31 289.189C251.885 288.263 251.143 287.52 250.217 287.095C249.373 286.707 248.27 286.707 246.064 286.707C243.763 286.707 242.612 286.707 241.737 286.285C240.869 285.867 240.169 285.166 239.751 284.297C239.33 283.421 239.33 282.286 239.33 280.017V239.267C239.33 236.998 239.33 235.863 239.751 234.987C240.169 234.118 240.869 233.417 241.737 232.999C242.612 232.577 243.746 232.577 246.013 232.577H246.418C248.305 232.577 249.249 232.577 249.998 232.283C251.099 231.85 251.971 230.978 252.403 229.875C252.697 229.125 252.697 228.181 252.697 226.293C252.697 224.404 252.697 223.46 252.991 222.71C253.423 221.607 254.295 220.735 255.397 220.302C256.146 220.008 257.089 220.008 258.976 220.008H285.914C287.8 220.008 288.744 220.008 289.493 220.302C290.594 220.735 291.466 221.607 291.898 222.71C292.192 223.46 292.192 224.404 292.192 226.293C292.192 228.181 292.192 229.125 292.486 229.875C292.919 230.978 293.79 231.85 294.892 232.283C295.641 232.577 296.584 232.577 298.471 232.577H298.876C301.144 232.577 302.278 232.577 303.152 232.999C304.02 233.417 304.721 234.118 305.139 234.987C305.56 235.863 305.56 236.998 305.56 239.267V239.957C305.56 242.341 305.56 243.533 305.096 244.444C304.689 245.245 304.038 245.896 303.238 246.304C302.328 246.769 301.137 246.769 298.755 246.769H298.167C295.804 246.769 294.623 246.769 293.719 246.312C292.907 245.902 292.248 245.242 291.839 244.43C291.382 243.525 291.382 242.342 291.382 239.977Z" fill="url(#paint0_linear_6111_1187)"/>
<path d="M349.106 250.316C349.106 248.142 349.106 247.055 348.719 246.21C348.294 245.283 347.552 244.54 346.626 244.115C345.782 243.728 344.696 243.728 342.524 243.728H336.245C334.073 243.728 332.987 243.728 332.142 244.115C331.217 244.54 330.474 245.283 330.05 246.21C329.662 247.055 329.662 248.142 329.662 250.316C329.662 252.491 329.662 253.578 329.275 254.423C328.85 255.349 328.108 256.092 327.182 256.517C326.338 256.905 325.252 256.905 323.08 256.905H322.877C320.514 256.905 319.333 256.905 318.429 257.362C317.617 257.772 316.958 258.432 316.549 259.244C316.092 260.149 316.092 261.331 316.092 263.697V293.073C316.092 295.457 316.092 296.649 316.556 297.56C316.963 298.361 317.614 299.012 318.414 299.42C319.324 299.884 320.515 299.884 322.897 299.884H323.465C325.847 299.884 327.038 299.884 327.948 299.42C328.748 299.012 329.399 298.361 329.806 297.56C330.27 296.649 330.27 295.457 330.27 293.073V263.717C330.27 261.333 330.27 260.14 330.733 259.23C331.141 258.429 331.792 257.777 332.592 257.369C333.502 256.905 334.693 256.905 337.075 256.905H342.524C344.696 256.905 345.782 256.905 346.626 256.517C347.552 256.092 348.294 255.349 348.719 254.423C349.106 253.578 349.106 252.491 349.106 250.316Z" fill="url(#paint1_linear_6111_1187)"/>
<path d="M476.706 226.82C476.706 224.435 476.706 223.243 476.243 222.332C475.835 221.531 475.184 220.88 474.384 220.472C473.474 220.008 472.283 220.008 469.901 220.008H469.334C466.952 220.008 465.761 220.008 464.851 220.472C464.05 220.88 463.4 221.531 462.992 222.332C462.528 223.243 462.528 224.435 462.528 226.82V293.073C462.528 295.457 462.528 296.649 462.992 297.56C463.4 298.361 464.05 299.012 464.851 299.42C465.761 299.884 466.952 299.884 469.334 299.884H469.901C472.283 299.884 473.474 299.884 474.384 299.42C475.184 299.012 475.835 298.361 476.243 297.56C476.706 296.649 476.706 295.457 476.706 293.073V285.815C476.706 283.43 476.706 282.238 477.17 281.328C477.578 280.526 478.228 279.875 479.029 279.467C479.938 279.003 481.129 279.003 483.512 279.003H490.762C493.144 279.003 494.336 279.003 495.245 279.467C496.046 279.875 496.696 280.526 497.104 281.328C497.568 282.238 497.568 283.43 497.568 285.815V293.073C497.568 295.457 497.568 296.649 498.031 297.56C498.439 298.361 499.09 299.012 499.89 299.42C500.8 299.884 501.991 299.884 504.373 299.884H504.94C507.322 299.884 508.513 299.884 509.423 299.42C510.224 299.012 510.874 298.361 511.282 297.56C511.746 296.649 511.745 295.457 511.745 293.073V285.693C511.745 283.423 511.746 282.289 511.324 281.413C510.906 280.544 510.206 279.843 509.338 279.425C508.463 279.003 507.312 279.003 505.011 279.003C502.805 279.003 501.702 279.003 500.858 278.615C499.932 278.19 499.19 277.447 498.765 276.521C498.378 275.676 498.378 274.588 498.378 272.414C498.378 270.24 498.378 269.153 497.991 268.308C497.566 267.381 496.823 266.638 495.898 266.213C495.054 265.825 493.968 265.825 491.795 265.825H483.512C481.129 265.825 479.938 265.825 479.029 265.361C478.228 264.953 477.578 264.302 477.17 263.501C476.706 262.59 476.706 261.398 476.706 259.014V226.82Z" fill="url(#paint2_linear_6111_1187)"/>
<path d="M498.58 249.708C498.58 247.534 498.58 246.447 498.968 245.602C499.392 244.675 500.135 243.932 501.06 243.507C501.905 243.119 502.991 243.119 505.163 243.119C507.335 243.119 508.421 243.119 509.266 243.507C510.191 243.932 510.934 244.675 511.358 245.602C511.746 246.447 511.745 247.534 511.745 249.708V258.831C511.745 261.005 511.746 262.092 511.358 262.938C510.934 263.864 510.191 264.607 509.266 265.032C508.421 265.42 507.335 265.42 505.163 265.42C502.991 265.42 501.905 265.42 501.06 265.032C500.135 264.607 499.392 263.864 498.968 262.938C498.58 262.092 498.58 261.005 498.58 258.831V249.708Z" fill="url(#paint3_linear_6111_1187)"/>
<path d="M358.22 250.316C358.22 248.142 358.22 247.055 358.608 246.21C359.032 245.283 359.775 244.54 360.7 244.115C361.545 243.728 362.631 243.728 364.803 243.728H382.019C384.191 243.728 385.277 243.728 386.122 244.115C387.047 244.54 387.789 245.283 388.214 246.21C388.601 247.055 388.601 248.142 388.601 250.316C388.601 252.491 388.601 253.578 388.989 254.423C389.413 255.349 390.156 256.092 391.081 256.517C391.926 256.905 393.028 256.905 395.234 256.905C397.536 256.905 398.686 256.905 399.561 257.327C400.429 257.745 401.13 258.446 401.548 259.315C401.969 260.191 401.969 261.326 401.969 263.595V279.814C401.969 282.084 401.969 283.218 401.548 284.094C401.13 284.963 400.429 285.664 399.561 286.082C398.686 286.504 397.536 286.504 395.234 286.504C393.028 286.504 391.926 286.504 391.081 286.892C390.156 287.317 389.413 288.06 388.989 288.986C388.601 289.832 388.601 290.919 388.601 293.093C388.601 295.267 388.601 296.354 388.214 297.199C387.789 298.126 387.047 298.869 386.122 299.294C385.277 299.682 384.191 299.682 382.019 299.682H363.993C361.821 299.682 360.735 299.682 359.89 299.294C358.965 298.869 358.222 298.126 357.798 297.199C357.41 296.354 357.41 295.267 357.41 293.093C357.41 290.919 357.41 289.832 357.023 288.986C356.598 288.06 355.856 287.317 354.93 286.892C354.086 286.504 352.983 286.504 350.777 286.504C348.476 286.504 347.325 286.504 346.45 286.082C345.582 285.664 344.882 284.963 344.464 284.094C344.043 283.218 344.043 282.084 344.043 279.814V279.125C344.043 276.74 344.043 275.548 344.506 274.637C344.914 273.836 345.565 273.185 346.365 272.777C347.275 272.313 348.466 272.313 350.848 272.313H351.415C353.797 272.313 354.988 272.313 355.898 272.777C356.698 273.185 357.349 273.836 357.757 274.637C358.22 275.548 358.22 276.74 358.22 279.125V279.692C358.22 282.077 358.22 283.269 358.684 284.18C359.092 284.981 359.742 285.632 360.543 286.04C361.453 286.504 362.644 286.504 365.026 286.504H380.986C383.368 286.504 384.559 286.504 385.469 286.04C386.269 285.632 386.92 284.981 387.328 284.18C387.791 283.269 387.791 282.077 387.791 279.692V263.717C387.791 261.333 387.791 260.14 387.328 259.23C386.92 258.429 386.269 257.777 385.469 257.369C384.559 256.905 383.368 256.905 380.986 256.905H364.803C362.631 256.905 361.545 256.905 360.7 256.517C359.775 256.092 359.032 255.349 358.608 254.423C358.22 253.578 358.22 252.491 358.22 250.316Z" fill="url(#paint4_linear_6111_1187)"/>
<path d="M422.223 250.316C422.223 248.142 422.223 247.055 422.61 246.21C423.035 245.283 423.777 244.54 424.703 244.115C425.547 243.728 426.633 243.728 428.806 243.728H446.021C448.194 243.728 449.28 243.728 450.124 244.115C451.05 244.54 451.792 245.283 452.217 246.21C452.604 247.055 452.604 248.142 452.604 250.316C452.604 252.491 452.604 253.578 452.217 254.423C451.792 255.349 451.05 256.092 450.124 256.517C449.28 256.905 448.194 256.905 446.021 256.905H429.838C427.456 256.905 426.265 256.905 425.356 257.369C424.555 257.777 423.905 258.429 423.497 259.23C423.033 260.14 423.033 261.333 423.033 263.717V279.692C423.033 282.077 423.033 283.269 423.497 284.18C423.905 284.981 424.555 285.632 425.356 286.04C426.265 286.504 427.456 286.504 429.838 286.504H446.832C449.004 286.504 450.09 286.504 450.934 286.892C451.86 287.317 452.602 288.06 453.027 288.986C453.414 289.832 453.414 290.919 453.414 293.093C453.414 295.267 453.414 296.354 453.027 297.199C452.602 298.126 451.86 298.869 450.934 299.294C450.09 299.682 449.004 299.682 446.832 299.682H428.806C426.633 299.682 425.547 299.682 424.703 299.294C423.777 298.869 423.035 298.126 422.61 297.199C422.223 296.354 422.223 295.267 422.223 293.093C422.223 290.919 422.223 289.832 421.836 288.986C421.411 288.06 420.669 287.317 419.743 286.892C418.899 286.504 417.796 286.504 415.59 286.504C413.289 286.504 412.138 286.504 411.263 286.082C410.395 285.664 409.695 284.963 409.277 284.094C408.855 283.218 408.855 282.084 408.855 279.814V263.595C408.855 261.326 408.855 260.191 409.277 259.315C409.695 258.446 410.395 257.745 411.263 257.327C412.138 256.905 413.289 256.905 415.59 256.905C417.796 256.905 418.899 256.905 419.743 256.517C420.669 256.092 421.411 255.349 421.836 254.423C422.223 253.578 422.223 252.491 422.223 250.316Z" fill="url(#paint5_linear_6111_1187)"/>
<path d="M87.4247 234.726C87.4247 232.342 87.4247 231.15 86.9611 230.239C86.5534 229.438 85.9027 228.787 85.1024 228.378C84.1925 227.914 83.0015 227.914 80.6194 227.914H80.0523C77.6702 227.914 76.4791 227.914 75.5693 228.378C74.769 228.787 74.1183 229.438 73.7105 230.239C73.2469 231.15 73.2469 232.342 73.2469 234.726V235.294C73.2469 237.678 73.2469 238.87 73.7105 239.781C74.1183 240.582 74.769 241.233 75.5693 241.642C76.4791 242.106 77.6702 242.106 80.0523 242.106H80.6194C83.0015 242.106 84.1925 242.106 85.1024 241.642C85.9027 241.233 86.5534 240.582 86.9611 239.781C87.4247 238.87 87.4247 237.678 87.4247 235.294V234.726Z" fill="url(#paint6_linear_6111_1187)"/>
<path d="M73.0444 250.539C73.0444 248.155 73.0444 246.963 72.5808 246.052C72.173 245.251 71.5224 244.6 70.722 244.192C69.8122 243.728 68.6212 243.728 66.2391 243.728H65.6719C63.2899 243.728 62.0988 243.728 61.189 244.192C60.3887 244.6 59.738 245.251 59.3302 246.052C58.8666 246.963 58.8666 248.155 58.8666 250.539V293.073C58.8666 295.457 58.8666 296.649 59.3302 297.56C59.738 298.361 60.3887 299.012 61.189 299.42C62.0988 299.884 63.2899 299.884 65.6719 299.884H66.2391C68.6212 299.884 69.8122 299.884 70.722 299.42C71.5224 299.012 72.173 298.361 72.5808 297.56C73.0444 296.649 73.0444 295.457 73.0444 293.073V250.539Z" fill="url(#paint7_linear_6111_1187)"/>
<path d="M123.679 250.316C123.679 248.142 123.679 247.055 123.292 246.21C122.867 245.283 122.125 244.54 121.199 244.115C120.355 243.728 119.269 243.728 117.097 243.728H108.185C106.013 243.728 104.927 243.728 104.082 244.115C103.157 244.54 102.414 245.283 101.99 246.21C101.603 247.055 101.602 248.142 101.602 250.316C101.602 252.491 101.602 253.578 101.215 254.423C100.791 255.349 100.048 256.092 99.1226 256.517C98.2782 256.905 97.1754 256.905 94.9697 256.905C92.6682 256.905 91.5174 256.905 90.6428 257.327C89.7746 257.745 89.0742 258.446 88.6561 259.315C88.2349 260.191 88.2349 261.326 88.2349 263.595V293.073C88.2349 295.457 88.2349 296.649 88.6985 297.56C89.1062 298.361 89.7569 299.012 90.5572 299.42C91.4671 299.884 92.6581 299.884 95.0402 299.884H95.6073C97.9894 299.884 99.1805 299.884 100.09 299.42C100.891 299.012 101.541 298.361 101.949 297.56C102.413 296.649 102.413 295.457 102.413 293.073V263.717C102.413 261.333 102.413 260.14 102.876 259.23C103.284 258.429 103.935 257.777 104.735 257.369C105.645 256.905 106.836 256.905 109.218 256.905H117.097C119.269 256.905 120.355 256.905 121.199 256.517C122.125 256.092 122.867 255.349 123.292 254.423C123.679 253.578 123.679 252.491 123.679 250.316Z" fill="url(#paint8_linear_6111_1187)"/>
<path d="M136.237 250.316C136.237 248.142 136.237 247.055 136.624 246.21C137.049 245.283 137.791 244.54 138.717 244.115C139.561 243.728 140.647 243.728 142.819 243.728H152.136C154.308 243.728 155.394 243.728 156.239 244.115C157.164 244.54 157.907 245.283 158.331 246.21C158.719 247.055 158.719 248.142 158.719 250.316C158.719 252.491 158.719 253.578 159.106 254.423C159.531 255.349 160.273 256.092 161.199 256.517C162.043 256.905 163.146 256.905 165.352 256.905C167.653 256.905 168.804 256.905 169.678 257.327C170.547 257.745 171.247 258.446 171.665 259.315C172.086 260.191 172.086 261.326 172.086 263.595V293.073C172.086 295.457 172.086 296.649 171.623 297.56C171.215 298.361 170.564 299.012 169.764 299.42C168.854 299.884 167.663 299.884 165.281 299.884H164.714C162.332 299.884 161.141 299.884 160.231 299.42C159.431 299.012 158.78 298.361 158.372 297.56C157.909 296.649 157.909 295.457 157.909 293.073V263.717C157.909 261.333 157.909 260.14 157.445 259.23C157.037 258.429 156.387 257.777 155.586 257.369C154.676 256.905 153.485 256.905 151.103 256.905H142.819C140.647 256.905 139.561 256.905 138.717 256.517C137.791 256.092 137.049 255.349 136.624 254.423C136.237 253.578 136.237 252.491 136.237 250.316Z" fill="url(#paint9_linear_6111_1187)"/>
<path d="M137.047 265.744C137.047 263.36 137.047 262.168 136.583 261.257C136.176 260.456 135.525 259.805 134.725 259.396C133.815 258.932 132.624 258.932 130.242 258.932H129.675C127.292 258.932 126.101 258.932 125.192 259.396C124.391 259.805 123.741 260.456 123.333 261.257C122.869 262.168 122.869 263.36 122.869 265.744V293.073C122.869 295.457 122.869 296.649 123.333 297.56C123.741 298.361 124.391 299.012 125.192 299.42C126.101 299.884 127.292 299.884 129.675 299.884H130.242C132.624 299.884 133.815 299.884 134.725 299.42C135.525 299.012 136.176 298.361 136.583 297.56C137.047 296.649 137.047 295.457 137.047 293.073V265.744Z" fill="url(#paint10_linear_6111_1187)"/>
<path d="M227.785 250.519C227.785 248.345 227.785 247.258 227.397 246.412C226.973 245.486 226.23 244.743 225.305 244.318C224.46 243.93 223.374 243.93 221.202 243.93H194.062C191.89 243.93 190.804 243.93 189.959 244.318C189.034 244.743 188.291 245.486 187.867 246.412C187.479 247.258 187.479 248.345 187.479 250.519C187.479 252.693 187.479 253.78 187.867 254.626C188.291 255.552 189.034 256.295 189.959 256.72C190.804 257.108 191.89 257.108 194.062 257.108H221.202C223.374 257.108 224.46 257.108 225.305 256.72C226.23 256.295 226.973 255.552 227.397 254.626C227.785 253.78 227.785 252.693 227.785 250.519Z" fill="url(#paint11_linear_6111_1187)"/>
<path d="M182.011 271.907C182.011 270.209 182.011 269.359 182.249 268.677C182.677 267.454 183.638 266.492 184.859 266.064C185.541 265.825 186.39 265.825 188.087 265.825H201.252C202.949 265.825 203.798 265.825 204.48 266.064C205.701 266.492 206.662 267.454 207.09 268.677C207.328 269.359 207.328 270.209 207.328 271.907C207.328 273.606 207.328 274.455 207.09 275.138C206.662 276.361 205.701 277.322 204.48 277.75C203.798 277.989 202.949 277.989 201.252 277.989H188.087C186.39 277.989 185.541 277.989 184.859 277.75C183.638 277.322 182.677 276.361 182.249 275.138C182.011 274.455 182.011 273.606 182.011 271.907Z" fill="url(#paint12_linear_6111_1187)"/>
<path d="M221 286.707C223.172 286.707 224.258 286.707 225.102 287.095C226.028 287.52 226.77 288.263 227.195 289.189C227.582 290.034 227.582 291.121 227.582 293.296C227.582 295.47 227.582 296.557 227.195 297.402C226.77 298.329 226.028 299.072 225.102 299.497C224.258 299.884 223.172 299.884 221 299.884H193.657C191.485 299.884 190.399 299.884 189.554 299.497C188.629 299.072 187.886 298.329 187.462 297.402C187.074 296.557 187.074 295.47 187.074 293.296C187.074 291.121 187.074 290.034 187.462 289.189C187.886 288.263 188.629 287.52 189.554 287.095C190.399 286.707 191.485 286.707 193.657 286.707H221Z" fill="url(#paint13_linear_6111_1187)"/>
<path d="M22.4095 239.997C22.4095 237.613 22.4095 236.421 21.9459 235.51C21.5381 234.709 20.8874 234.058 20.0871 233.649C19.1773 233.185 17.9862 233.185 15.6041 233.185H7.1177C4.94553 233.185 3.85945 233.185 3.01502 232.798C2.08955 232.373 1.34708 231.63 0.922531 230.703C0.535156 229.858 0.535156 228.771 0.535156 226.597C0.535156 224.422 0.535156 223.335 0.922531 222.49C1.34708 221.564 2.08955 220.821 3.01502 220.396C3.85945 220.008 4.94553 220.008 7.1177 220.008H52.6892C54.8613 220.008 55.9474 220.008 56.7918 220.396C57.7173 220.821 58.4598 221.564 58.8843 222.49C59.2717 223.335 59.2717 224.422 59.2717 226.597C59.2717 228.771 59.2717 229.858 58.8843 230.703C58.4598 231.63 57.7173 232.373 56.7918 232.798C55.9474 233.185 54.8613 233.185 52.6892 233.185H43.3926C41.0105 233.185 39.8194 233.185 38.9096 233.649C38.1093 234.058 37.4586 234.709 37.0508 235.51C36.5872 236.421 36.5872 237.613 36.5872 239.997V293.073C36.5872 295.457 36.5872 296.649 36.1237 297.56C35.7159 298.361 35.0652 299.012 34.2649 299.42C33.355 299.884 32.164 299.884 29.7819 299.884H29.2148C26.8327 299.884 25.6417 299.884 24.7318 299.42C23.9315 299.012 23.2808 298.361 22.873 297.56C22.4095 296.649 22.4095 295.457 22.4095 293.073V239.997Z" fill="url(#paint14_linear_6111_1187)"/>
<defs>
<linearGradient id="paint0_linear_6111_1187" x1="256.14" y1="220.008" x2="256.14" y2="299.884" gradientUnits="userSpaceOnUse">
<stop offset="0.229147" stop-color="#F365FF"/>
<stop offset="0.8125" stop-color="#B032EC"/>
</linearGradient>
<linearGradient id="paint1_linear_6111_1187" x1="256.14" y1="220.008" x2="256.14" y2="299.884" gradientUnits="userSpaceOnUse">
<stop offset="0.229147" stop-color="#F365FF"/>
<stop offset="0.8125" stop-color="#B032EC"/>
</linearGradient>
<linearGradient id="paint2_linear_6111_1187" x1="256.14" y1="220.008" x2="256.14" y2="299.884" gradientUnits="userSpaceOnUse">
<stop offset="0.229147" stop-color="#F365FF"/>
<stop offset="0.8125" stop-color="#B032EC"/>
</linearGradient>
<linearGradient id="paint3_linear_6111_1187" x1="256.14" y1="220.008" x2="256.14" y2="299.884" gradientUnits="userSpaceOnUse">
<stop offset="0.229147" stop-color="#F365FF"/>
<stop offset="0.8125" stop-color="#B032EC"/>
</linearGradient>
<linearGradient id="paint4_linear_6111_1187" x1="256.14" y1="220.008" x2="256.14" y2="299.884" gradientUnits="userSpaceOnUse">
<stop offset="0.229147" stop-color="#F365FF"/>
<stop offset="0.8125" stop-color="#B032EC"/>
</linearGradient>
<linearGradient id="paint5_linear_6111_1187" x1="256.14" y1="220.008" x2="256.14" y2="299.884" gradientUnits="userSpaceOnUse">
<stop offset="0.229147" stop-color="#F365FF"/>
<stop offset="0.8125" stop-color="#B032EC"/>
</linearGradient>
<linearGradient id="paint6_linear_6111_1187" x1="256.14" y1="220.008" x2="256.14" y2="299.884" gradientUnits="userSpaceOnUse">
<stop offset="0.229147" stop-color="#F365FF"/>
<stop offset="0.8125" stop-color="#B032EC"/>
</linearGradient>
<linearGradient id="paint7_linear_6111_1187" x1="256.14" y1="220.008" x2="256.14" y2="299.884" gradientUnits="userSpaceOnUse">
<stop offset="0.229147" stop-color="#F365FF"/>
<stop offset="0.8125" stop-color="#B032EC"/>
</linearGradient>
<linearGradient id="paint8_linear_6111_1187" x1="256.14" y1="220.008" x2="256.14" y2="299.884" gradientUnits="userSpaceOnUse">
<stop offset="0.229147" stop-color="#F365FF"/>
<stop offset="0.8125" stop-color="#B032EC"/>
</linearGradient>
<linearGradient id="paint9_linear_6111_1187" x1="256.14" y1="220.008" x2="256.14" y2="299.884" gradientUnits="userSpaceOnUse">
<stop offset="0.229147" stop-color="#F365FF"/>
<stop offset="0.8125" stop-color="#B032EC"/>
</linearGradient>
<linearGradient id="paint10_linear_6111_1187" x1="256.14" y1="220.008" x2="256.14" y2="299.884" gradientUnits="userSpaceOnUse">
<stop offset="0.229147" stop-color="#F365FF"/>
<stop offset="0.8125" stop-color="#B032EC"/>
</linearGradient>
<linearGradient id="paint11_linear_6111_1187" x1="256.14" y1="220.008" x2="256.14" y2="299.884" gradientUnits="userSpaceOnUse">
<stop offset="0.229147" stop-color="#F365FF"/>
<stop offset="0.8125" stop-color="#B032EC"/>
</linearGradient>
<linearGradient id="paint12_linear_6111_1187" x1="256.14" y1="220.008" x2="256.14" y2="299.884" gradientUnits="userSpaceOnUse">
<stop offset="0.229147" stop-color="#F365FF"/>
<stop offset="0.8125" stop-color="#B032EC"/>
</linearGradient>
<linearGradient id="paint13_linear_6111_1187" x1="256.14" y1="220.008" x2="256.14" y2="299.884" gradientUnits="userSpaceOnUse">
<stop offset="0.229147" stop-color="#F365FF"/>
<stop offset="0.8125" stop-color="#B032EC"/>
</linearGradient>
<linearGradient id="paint14_linear_6111_1187" x1="256.14" y1="220.008" x2="256.14" y2="299.884" gradientUnits="userSpaceOnUse">
<stop offset="0.229147" stop-color="#F365FF"/>
<stop offset="0.8125" stop-color="#B032EC"/>
</linearGradient>
</defs>
</svg>
