<svg width="512" height="512" viewBox="0 0 512 512" fill="none" xmlns="http://www.w3.org/2000/svg">
<path d="M285.205 243.425C285.205 241.467 285.205 240.488 284.827 239.739C284.488 239.066 283.943 238.52 283.271 238.181C282.523 237.803 281.545 237.803 279.589 237.803H259.486C257.514 237.803 256.528 237.803 255.775 238.187C255.113 238.525 254.574 239.064 254.237 239.727C253.853 240.481 253.853 241.468 253.853 243.442V276.468C253.853 278.442 253.853 279.429 254.237 280.183C254.574 280.846 255.113 281.385 255.775 281.723C256.528 282.107 257.514 282.107 259.486 282.107H279.589C281.545 282.107 282.523 282.107 283.271 281.729C283.943 281.39 284.488 280.844 284.827 280.171C285.205 279.422 285.205 278.443 285.205 276.485C285.205 274.527 285.205 273.548 285.583 272.799C285.922 272.127 286.468 271.581 287.139 271.241C287.888 270.863 288.866 270.863 290.822 270.863H291.308C293.28 270.863 294.266 270.863 295.019 271.247C295.682 271.585 296.22 272.124 296.558 272.788C296.941 273.541 296.941 274.528 296.941 276.502V277.073C296.941 278.951 296.941 279.891 296.593 280.616C296.247 281.335 295.667 281.915 294.948 282.262C294.224 282.611 293.286 282.611 291.409 282.611H291.073C289.511 282.611 288.731 282.611 288.11 282.854C287.199 283.212 286.477 283.935 286.119 284.847C285.876 285.468 285.876 286.25 285.876 287.813C285.876 289.376 285.876 290.158 285.632 290.779C285.275 291.691 284.553 292.414 283.641 292.772C283.021 293.015 282.24 293.016 280.678 293.016H258.631C256.833 293.016 255.934 293.015 255.235 292.695C254.469 292.343 253.854 291.728 253.503 290.961C253.182 290.261 253.182 289.361 253.182 287.561C253.182 285.762 253.182 284.862 252.861 284.162C252.51 283.395 251.895 282.78 251.129 282.428C250.43 282.107 249.517 282.107 247.692 282.107C245.786 282.107 244.834 282.107 244.11 281.758C243.391 281.412 242.811 280.831 242.465 280.112C242.117 279.387 242.117 278.448 242.117 276.569V242.837C242.117 240.959 242.117 240.019 242.465 239.294C242.811 238.575 243.391 237.995 244.11 237.648C244.834 237.299 245.772 237.299 247.649 237.299H247.985C249.547 237.299 250.327 237.299 250.948 237.056C251.859 236.698 252.581 235.975 252.939 235.063C253.182 234.442 253.182 233.66 253.182 232.097C253.182 230.534 253.182 229.752 253.426 229.131C253.783 228.219 254.505 227.496 255.417 227.138C256.037 226.895 256.818 226.895 258.38 226.895H280.678C282.24 226.895 283.021 226.895 283.641 227.138C284.553 227.496 285.275 228.219 285.632 229.131C285.876 229.752 285.876 230.534 285.876 232.097C285.876 233.66 285.876 234.442 286.119 235.063C286.477 235.975 287.199 236.698 288.11 237.056C288.731 237.299 289.511 237.299 291.073 237.299H291.409C293.286 237.299 294.224 237.299 294.948 237.648C295.667 237.995 296.247 238.575 296.593 239.294C296.941 240.019 296.941 240.959 296.941 242.837V243.408C296.941 245.382 296.941 246.369 296.558 247.122C296.22 247.786 295.682 248.325 295.019 248.663C294.266 249.047 293.28 249.047 291.308 249.047H290.822C288.866 249.047 287.888 249.047 287.139 248.669C286.468 248.329 285.922 247.783 285.583 247.111C285.205 246.362 285.205 245.383 285.205 243.425Z" fill="url(#paint0_linear_6111_1187)"/>
<path d="M332.988 251.984C332.988 250.184 332.988 249.284 332.668 248.584C332.316 247.817 331.702 247.202 330.936 246.85C330.237 246.529 329.338 246.529 327.539 246.529H322.342C320.544 246.529 319.645 246.529 318.946 246.85C318.18 247.202 317.565 247.817 317.214 248.584C316.893 249.284 316.893 250.184 316.893 251.984C316.893 253.783 316.893 254.683 316.572 255.383C316.221 256.15 315.606 256.765 314.84 257.117C314.141 257.438 313.242 257.438 311.444 257.438H311.276C309.32 257.438 308.342 257.438 307.594 257.816C306.922 258.155 306.377 258.701 306.038 259.374C305.66 260.123 305.66 261.102 305.66 263.06V287.377C305.66 289.35 305.66 290.337 306.044 291.091C306.381 291.754 306.92 292.294 307.582 292.631C308.335 293.015 309.321 293.015 311.293 293.015H311.763C313.734 293.015 314.72 293.015 315.474 292.631C316.136 292.294 316.675 291.754 317.012 291.091C317.396 290.337 317.396 289.35 317.396 287.377V263.076C317.396 261.103 317.396 260.116 317.78 259.362C318.117 258.699 318.656 258.16 319.318 257.822C320.072 257.438 321.057 257.438 323.029 257.438H327.539C329.338 257.438 330.237 257.438 330.936 257.117C331.702 256.765 332.316 256.15 332.668 255.383C332.988 254.683 332.988 253.783 332.988 251.984Z" fill="url(#paint1_linear_6111_1187)"/>
<path d="M438.614 232.533C438.614 230.56 438.614 229.573 438.231 228.819C437.893 228.156 437.354 227.617 436.692 227.279C435.939 226.895 434.953 226.895 432.981 226.895H432.511C430.54 226.895 429.554 226.895 428.8 227.279C428.138 227.617 427.599 228.156 427.262 228.819C426.878 229.573 426.878 230.56 426.878 232.533V287.377C426.878 289.35 426.878 290.337 427.262 291.091C427.599 291.754 428.138 292.294 428.8 292.631C429.554 293.015 430.54 293.015 432.511 293.015H432.981C434.953 293.015 435.939 293.015 436.692 292.631C437.354 292.294 437.893 291.754 438.231 291.091C438.614 290.337 438.614 289.35 438.614 287.377V281.369C438.614 279.395 438.614 278.408 438.998 277.654C439.336 276.991 439.874 276.452 440.537 276.114C441.29 275.73 442.276 275.73 444.248 275.73H450.25C452.222 275.73 453.208 275.73 453.961 276.114C454.623 276.452 455.162 276.991 455.499 277.654C455.883 278.408 455.883 279.395 455.883 281.369V287.377C455.883 289.35 455.883 290.337 456.267 291.091C456.605 291.754 457.143 292.294 457.806 292.631C458.559 293.015 459.545 293.015 461.517 293.015H461.986C463.958 293.015 464.944 293.015 465.697 292.631C466.36 292.294 466.898 291.754 467.236 291.091C467.619 290.337 467.619 289.35 467.619 287.377V281.268C467.619 279.389 467.619 278.45 467.271 277.725C466.925 277.006 466.345 276.425 465.626 276.079C464.902 275.73 463.95 275.73 462.044 275.73C460.219 275.73 459.306 275.73 458.607 275.409C457.841 275.057 457.226 274.442 456.875 273.675C456.554 272.976 456.554 272.076 456.554 270.276C456.554 268.476 456.554 267.576 456.233 266.877C455.882 266.11 455.267 265.495 454.501 265.143C453.802 264.822 452.903 264.822 451.105 264.822H444.248C442.276 264.822 441.29 264.822 440.537 264.438C439.874 264.1 439.336 263.561 438.998 262.898C438.614 262.144 438.614 261.157 438.614 259.183V232.533Z" fill="url(#paint2_linear_6111_1187)"/>
<path d="M456.722 251.48C456.722 249.68 456.722 248.78 457.042 248.081C457.394 247.314 458.008 246.699 458.774 246.347C459.473 246.026 460.372 246.026 462.17 246.026C463.969 246.026 464.868 246.026 465.567 246.347C466.333 246.699 466.947 247.314 467.299 248.081C467.619 248.78 467.619 249.68 467.619 251.48V259.032C467.619 260.832 467.619 261.732 467.299 262.431C466.947 263.198 466.333 263.813 465.567 264.165C464.868 264.486 463.969 264.486 462.17 264.486C460.372 264.486 459.473 264.486 458.774 264.165C458.008 263.813 457.394 263.198 457.042 262.431C456.722 261.732 456.722 260.832 456.722 259.032V251.48Z" fill="url(#paint3_linear_6111_1187)"/>
<path d="M340.533 251.984C340.533 250.184 340.533 249.284 340.854 248.584C341.205 247.817 341.82 247.202 342.586 246.85C343.285 246.529 344.184 246.529 345.982 246.529H360.233C362.031 246.529 362.93 246.529 363.629 246.85C364.395 247.202 365.01 247.817 365.361 248.584C365.682 249.284 365.682 250.184 365.682 251.984C365.682 253.783 365.682 254.683 366.003 255.383C366.354 256.15 366.969 256.765 367.735 257.117C368.434 257.438 369.347 257.438 371.173 257.438C373.078 257.438 374.03 257.438 374.754 257.787C375.473 258.133 376.053 258.714 376.399 259.433C376.748 260.158 376.748 261.097 376.748 262.976V276.401C376.748 278.28 376.748 279.22 376.399 279.944C376.053 280.664 375.473 281.244 374.754 281.59C374.03 281.939 373.078 281.939 371.173 281.939C369.347 281.939 368.434 281.939 367.735 282.26C366.969 282.612 366.354 283.227 366.003 283.994C365.682 284.694 365.682 285.594 365.682 287.394C365.682 289.193 365.682 290.093 365.361 290.793C365.01 291.56 364.395 292.175 363.629 292.527C362.93 292.848 362.031 292.848 360.233 292.848H345.311C343.513 292.848 342.614 292.848 341.915 292.527C341.149 292.175 340.535 291.56 340.183 290.793C339.862 290.093 339.862 289.193 339.862 287.394C339.862 285.594 339.862 284.694 339.542 283.994C339.19 283.227 338.576 282.612 337.81 282.26C337.111 281.939 336.198 281.939 334.372 281.939C332.467 281.939 331.514 281.939 330.79 281.59C330.071 281.244 329.492 280.664 329.146 279.944C328.797 279.22 328.797 278.28 328.797 276.401V275.831C328.797 273.857 328.797 272.87 329.181 272.116C329.518 271.453 330.057 270.914 330.719 270.576C331.472 270.192 332.458 270.192 334.43 270.192H334.9C336.872 270.192 337.857 270.192 338.611 270.576C339.273 270.914 339.812 271.453 340.149 272.116C340.533 272.87 340.533 273.857 340.533 275.831V276.301C340.533 278.274 340.533 279.261 340.917 280.015C341.254 280.678 341.793 281.217 342.455 281.555C343.209 281.939 344.195 281.939 346.166 281.939H359.378C361.35 281.939 362.336 281.939 363.089 281.555C363.752 281.217 364.29 280.678 364.628 280.015C365.011 279.261 365.011 278.274 365.011 276.301V263.076C365.011 261.103 365.011 260.116 364.628 259.362C364.29 258.699 363.752 258.16 363.089 257.822C362.336 257.438 361.35 257.438 359.378 257.438H345.982C344.184 257.438 343.285 257.438 342.586 257.117C341.82 256.765 341.205 256.15 340.854 255.383C340.533 254.683 340.533 253.783 340.533 251.984Z" fill="url(#paint4_linear_6111_1187)"/>
<path d="M393.514 251.984C393.514 250.184 393.514 249.284 393.834 248.584C394.186 247.817 394.8 247.202 395.566 246.85C396.265 246.529 397.165 246.529 398.963 246.529H413.214C415.012 246.529 415.911 246.529 416.61 246.85C417.376 247.202 417.991 247.817 418.342 248.584C418.663 249.284 418.663 250.184 418.663 251.984C418.663 253.783 418.663 254.683 418.342 255.383C417.991 256.15 417.376 256.765 416.61 257.117C415.911 257.438 415.012 257.438 413.214 257.438H399.818C397.846 257.438 396.86 257.438 396.107 257.822C395.444 258.16 394.906 258.699 394.568 259.362C394.184 260.116 394.184 261.103 394.184 263.076V276.301C394.184 278.274 394.184 279.261 394.568 280.015C394.906 280.678 395.444 281.217 396.107 281.555C396.86 281.939 397.846 281.939 399.818 281.939H413.884C415.682 281.939 416.581 281.939 417.281 282.26C418.047 282.612 418.661 283.227 419.013 283.994C419.333 284.694 419.333 285.594 419.333 287.394C419.333 289.193 419.333 290.093 419.013 290.793C418.661 291.56 418.047 292.175 417.281 292.527C416.581 292.848 415.682 292.848 413.884 292.848H398.963C397.165 292.848 396.265 292.848 395.566 292.527C394.8 292.175 394.186 291.56 393.834 290.793C393.514 290.093 393.514 289.193 393.514 287.394C393.514 285.594 393.514 284.694 393.193 283.994C392.842 283.227 392.227 282.612 391.461 282.26C390.762 281.939 389.849 281.939 388.023 281.939C386.118 281.939 385.165 281.939 384.441 281.59C383.723 281.244 383.143 280.664 382.797 279.944C382.448 279.22 382.448 278.28 382.448 276.401V262.976C382.448 261.097 382.448 260.158 382.797 259.433C383.143 258.714 383.723 258.133 384.441 257.787C385.165 257.438 386.118 257.438 388.023 257.438C389.849 257.438 390.762 257.438 391.461 257.117C392.227 256.765 392.842 256.15 393.193 255.383C393.514 254.683 393.514 253.783 393.514 251.984Z" fill="url(#paint5_linear_6111_1187)"/>
<path d="M116.372 239.078C116.372 237.104 116.372 236.118 115.988 235.364C115.65 234.701 115.112 234.161 114.449 233.824C113.696 233.439 112.71 233.439 110.738 233.439H110.269C108.297 233.439 107.311 233.439 106.558 233.824C105.895 234.161 105.357 234.701 105.019 235.364C104.635 236.118 104.635 237.104 104.635 239.078V239.548C104.635 241.522 104.635 242.509 105.019 243.263C105.357 243.926 105.895 244.465 106.558 244.803C107.311 245.187 108.297 245.187 110.269 245.187H110.738C112.71 245.187 113.696 245.187 114.449 244.803C115.112 244.465 115.65 243.926 115.988 243.263C116.372 242.509 116.372 241.522 116.372 239.548V239.078Z" fill="url(#paint6_linear_6111_1187)"/>
<path d="M104.468 252.168C104.468 250.194 104.468 249.208 104.084 248.454C103.746 247.791 103.208 247.251 102.545 246.914C101.792 246.529 100.806 246.529 98.8343 246.529H98.3648C96.3929 246.529 95.407 246.529 94.6538 246.914C93.9914 247.251 93.4527 247.791 93.1152 248.454C92.7314 249.208 92.7314 250.194 92.7314 252.168V287.377C92.7314 289.35 92.7314 290.337 93.1152 291.091C93.4527 291.754 93.9914 292.294 94.6538 292.631C95.407 293.015 96.3929 293.015 98.3648 293.015H98.8343C100.806 293.015 101.792 293.015 102.545 292.631C103.208 292.294 103.746 291.754 104.084 291.091C104.468 290.337 104.468 289.35 104.468 287.377V252.168Z" fill="url(#paint7_linear_6111_1187)"/>
<path d="M146.383 251.984C146.383 250.184 146.383 249.284 146.062 248.584C145.711 247.817 145.096 247.202 144.33 246.85C143.631 246.529 142.732 246.529 140.934 246.529H133.557C131.759 246.529 130.86 246.529 130.161 246.85C129.394 247.202 128.78 247.817 128.428 248.584C128.108 249.284 128.108 250.184 128.108 251.984C128.108 253.783 128.108 254.683 127.787 255.383C127.436 256.15 126.821 256.765 126.055 257.117C125.356 257.438 124.443 257.438 122.617 257.438C120.712 257.438 119.759 257.438 119.035 257.787C118.317 258.133 117.737 258.714 117.391 259.433C117.042 260.158 117.042 261.097 117.042 262.976V287.377C117.042 289.35 117.042 290.337 117.426 291.091C117.763 291.754 118.302 292.294 118.965 292.631C119.718 293.015 120.704 293.015 122.676 293.015H123.145C125.117 293.015 126.103 293.015 126.856 292.631C127.518 292.294 128.057 291.754 128.395 291.091C128.778 290.337 128.778 289.35 128.778 287.377V263.076C128.778 261.103 128.778 260.116 129.162 259.362C129.5 258.699 130.038 258.16 130.701 257.822C131.454 257.438 132.44 257.438 134.412 257.438H140.934C142.732 257.438 143.631 257.438 144.33 257.117C145.096 256.765 145.711 256.15 146.062 255.383C146.383 254.683 146.383 253.783 146.383 251.984Z" fill="url(#paint8_linear_6111_1187)"/>
<path d="M156.778 251.984C156.778 250.184 156.778 249.284 157.098 248.584C157.45 247.817 158.064 247.202 158.83 246.85C159.529 246.529 160.428 246.529 162.227 246.529H169.939C171.737 246.529 172.636 246.529 173.335 246.85C174.101 247.202 174.716 247.817 175.067 248.584C175.388 249.284 175.388 250.184 175.388 251.984C175.388 253.783 175.388 254.683 175.709 255.383C176.06 256.15 176.675 256.765 177.441 257.117C178.14 257.438 179.053 257.438 180.878 257.438C182.784 257.438 183.736 257.438 184.46 257.787C185.179 258.133 185.759 258.714 186.105 259.433C186.453 260.158 186.453 261.097 186.453 262.976V287.377C186.453 289.35 186.453 290.337 186.07 291.091C185.732 291.754 185.193 292.294 184.531 292.631C183.778 293.015 182.792 293.015 180.82 293.015H180.351C178.379 293.015 177.393 293.015 176.64 292.631C175.977 292.294 175.439 291.754 175.101 291.091C174.717 290.337 174.717 289.35 174.717 287.377V263.076C174.717 261.103 174.717 260.116 174.333 259.362C173.996 258.699 173.457 258.16 172.795 257.822C172.042 257.438 171.056 257.438 169.084 257.438H162.227C160.428 257.438 159.529 257.438 158.83 257.117C158.064 256.765 157.45 256.15 157.098 255.383C156.778 254.683 156.778 253.783 156.778 251.984Z" fill="url(#paint9_linear_6111_1187)"/>
<path d="M157.448 264.755C157.448 262.781 157.448 261.794 157.064 261.04C156.727 260.377 156.188 259.838 155.526 259.5C154.773 259.116 153.787 259.116 151.815 259.116H151.345C149.374 259.116 148.388 259.116 147.634 259.5C146.972 259.838 146.433 260.377 146.096 261.04C145.712 261.794 145.712 262.781 145.712 264.755V287.377C145.712 289.35 145.712 290.337 146.096 291.091C146.433 291.754 146.972 292.294 147.634 292.631C148.388 293.015 149.374 293.015 151.345 293.015H151.815C153.787 293.015 154.773 293.015 155.526 292.631C156.188 292.294 156.727 291.754 157.064 291.091C157.448 290.337 157.448 289.35 157.448 287.377V264.755Z" fill="url(#paint10_linear_6111_1187)"/>
<path d="M232.56 252.151C232.56 250.352 232.56 249.452 232.239 248.752C231.888 247.985 231.273 247.37 230.507 247.018C229.808 246.697 228.909 246.697 227.111 246.697H204.645C202.846 246.697 201.947 246.697 201.248 247.018C200.482 247.37 199.868 247.985 199.516 248.752C199.196 249.452 199.196 250.352 199.196 252.151C199.196 253.951 199.196 254.851 199.516 255.551C199.868 256.318 200.482 256.933 201.248 257.285C201.947 257.606 202.846 257.606 204.645 257.606H227.111C228.909 257.606 229.808 257.606 230.507 257.285C231.273 256.933 231.888 256.318 232.239 255.551C232.56 254.851 232.56 253.951 232.56 252.151Z" fill="url(#paint11_linear_6111_1187)"/>
<path d="M194.669 269.856C194.669 268.45 194.669 267.747 194.866 267.182C195.22 266.17 196.015 265.374 197.027 265.02C197.591 264.822 198.294 264.822 199.699 264.822H210.596C212.001 264.822 212.704 264.822 213.268 265.02C214.28 265.374 215.075 266.17 215.429 267.182C215.626 267.747 215.626 268.45 215.626 269.856C215.626 271.262 215.626 271.966 215.429 272.531C215.075 273.543 214.28 274.339 213.268 274.693C212.704 274.891 212.001 274.891 210.596 274.891H199.699C198.294 274.891 197.591 274.891 197.027 274.693C196.015 274.339 195.22 273.543 194.866 272.531C194.669 271.966 194.669 271.262 194.669 269.856Z" fill="url(#paint12_linear_6111_1187)"/>
<path d="M226.943 282.107C228.741 282.107 229.64 282.107 230.34 282.428C231.106 282.78 231.72 283.395 232.072 284.162C232.392 284.862 232.392 285.762 232.392 287.561C232.392 289.361 232.392 290.261 232.072 290.961C231.72 291.728 231.106 292.343 230.34 292.695C229.64 293.015 228.741 293.015 226.943 293.015H204.309C202.511 293.015 201.612 293.015 200.913 292.695C200.147 292.343 199.532 291.728 199.181 290.961C198.86 290.261 198.86 289.361 198.86 287.561C198.86 285.762 198.86 284.862 199.181 284.162C199.532 283.395 200.147 282.78 200.913 282.428C201.612 282.107 202.511 282.107 204.309 282.107H226.943Z" fill="url(#paint13_linear_6111_1187)"/>
<path d="M62.5526 243.442C62.5526 241.468 62.5526 240.481 62.1689 239.727C61.8313 239.064 61.2927 238.525 60.6302 238.187C59.877 237.803 58.8911 237.803 56.9192 237.803H49.8943C48.0962 237.803 47.1971 237.803 46.4981 237.482C45.732 237.13 45.1174 236.515 44.766 235.748C44.4453 235.048 44.4453 234.148 44.4453 232.349C44.4453 230.549 44.4453 229.649 44.766 228.949C45.1174 228.182 45.732 227.567 46.4981 227.216C47.1971 226.895 48.0962 226.895 49.8943 226.895H87.6178C89.4159 226.895 90.3149 226.895 91.0139 227.216C91.78 227.567 92.3946 228.182 92.7461 228.949C93.0667 229.649 93.0667 230.549 93.0667 232.349C93.0667 234.148 93.0667 235.048 92.7461 235.748C92.3946 236.515 91.78 237.13 91.0139 237.482C90.3149 237.803 89.4159 237.803 87.6178 237.803H79.9222C77.9503 237.803 76.9644 237.803 76.2112 238.187C75.5487 238.525 75.0101 239.064 74.6726 239.727C74.2888 240.481 74.2888 241.468 74.2888 243.442V287.377C74.2888 289.35 74.2888 290.337 73.9051 291.091C73.5675 291.754 73.0289 292.294 72.3664 292.631C71.6132 293.015 70.6273 293.015 68.6554 293.015H68.186C66.2141 293.015 65.2282 293.015 64.475 292.631C63.8125 292.294 63.2739 291.754 62.9364 291.091C62.5526 290.337 62.5526 289.35 62.5526 287.377V243.442Z" fill="url(#paint14_linear_6111_1187)"/>
<defs>
<linearGradient id="paint0_linear_6111_1187" x1="256.032" y1="226.895" x2="256.032" y2="293.016" gradientUnits="userSpaceOnUse">
<stop offset="0.229147" stop-color="#F365FF"/>
<stop offset="0.8125" stop-color="#B032EC"/>
</linearGradient>
<linearGradient id="paint1_linear_6111_1187" x1="256.032" y1="226.895" x2="256.032" y2="293.016" gradientUnits="userSpaceOnUse">
<stop offset="0.229147" stop-color="#F365FF"/>
<stop offset="0.8125" stop-color="#B032EC"/>
</linearGradient>
<linearGradient id="paint2_linear_6111_1187" x1="256.032" y1="226.895" x2="256.032" y2="293.016" gradientUnits="userSpaceOnUse">
<stop offset="0.229147" stop-color="#F365FF"/>
<stop offset="0.8125" stop-color="#B032EC"/>
</linearGradient>
<linearGradient id="paint3_linear_6111_1187" x1="256.032" y1="226.895" x2="256.032" y2="293.016" gradientUnits="userSpaceOnUse">
<stop offset="0.229147" stop-color="#F365FF"/>
<stop offset="0.8125" stop-color="#B032EC"/>
</linearGradient>
<linearGradient id="paint4_linear_6111_1187" x1="256.032" y1="226.895" x2="256.032" y2="293.016" gradientUnits="userSpaceOnUse">
<stop offset="0.229147" stop-color="#F365FF"/>
<stop offset="0.8125" stop-color="#B032EC"/>
</linearGradient>
<linearGradient id="paint5_linear_6111_1187" x1="256.032" y1="226.895" x2="256.032" y2="293.016" gradientUnits="userSpaceOnUse">
<stop offset="0.229147" stop-color="#F365FF"/>
<stop offset="0.8125" stop-color="#B032EC"/>
</linearGradient>
<linearGradient id="paint6_linear_6111_1187" x1="256.032" y1="226.895" x2="256.032" y2="293.016" gradientUnits="userSpaceOnUse">
<stop offset="0.229147" stop-color="#F365FF"/>
<stop offset="0.8125" stop-color="#B032EC"/>
</linearGradient>
<linearGradient id="paint7_linear_6111_1187" x1="256.032" y1="226.895" x2="256.032" y2="293.016" gradientUnits="userSpaceOnUse">
<stop offset="0.229147" stop-color="#F365FF"/>
<stop offset="0.8125" stop-color="#B032EC"/>
</linearGradient>
<linearGradient id="paint8_linear_6111_1187" x1="256.032" y1="226.895" x2="256.032" y2="293.016" gradientUnits="userSpaceOnUse">
<stop offset="0.229147" stop-color="#F365FF"/>
<stop offset="0.8125" stop-color="#B032EC"/>
</linearGradient>
<linearGradient id="paint9_linear_6111_1187" x1="256.032" y1="226.895" x2="256.032" y2="293.016" gradientUnits="userSpaceOnUse">
<stop offset="0.229147" stop-color="#F365FF"/>
<stop offset="0.8125" stop-color="#B032EC"/>
</linearGradient>
<linearGradient id="paint10_linear_6111_1187" x1="256.032" y1="226.895" x2="256.032" y2="293.016" gradientUnits="userSpaceOnUse">
<stop offset="0.229147" stop-color="#F365FF"/>
<stop offset="0.8125" stop-color="#B032EC"/>
</linearGradient>
<linearGradient id="paint11_linear_6111_1187" x1="256.032" y1="226.895" x2="256.032" y2="293.016" gradientUnits="userSpaceOnUse">
<stop offset="0.229147" stop-color="#F365FF"/>
<stop offset="0.8125" stop-color="#B032EC"/>
</linearGradient>
<linearGradient id="paint12_linear_6111_1187" x1="256.032" y1="226.895" x2="256.032" y2="293.016" gradientUnits="userSpaceOnUse">
<stop offset="0.229147" stop-color="#F365FF"/>
<stop offset="0.8125" stop-color="#B032EC"/>
</linearGradient>
<linearGradient id="paint13_linear_6111_1187" x1="256.032" y1="226.895" x2="256.032" y2="293.016" gradientUnits="userSpaceOnUse">
<stop offset="0.229147" stop-color="#F365FF"/>
<stop offset="0.8125" stop-color="#B032EC"/>
</linearGradient>
<linearGradient id="paint14_linear_6111_1187" x1="256.032" y1="226.895" x2="256.032" y2="293.016" gradientUnits="userSpaceOnUse">
<stop offset="0.229147" stop-color="#F365FF"/>
<stop offset="0.8125" stop-color="#B032EC"/>
</linearGradient>
</defs>
</svg>
